<svg width="46" height="46" viewBox="0 0 46 46" fill="none" xmlns="http://www.w3.org/2000/svg">
<path d="M4.52548 27.2804C2.02613 24.781 2.02613 20.7288 4.52548 18.2294L18.1019 4.65295C20.6013 2.15359 24.6535 2.15359 27.1529 4.65295L40.7294 18.2294C43.2287 20.7288 43.2287 24.781 40.7294 27.2804L27.1529 40.8568C24.6535 43.3562 20.6013 43.3562 18.1019 40.8568L4.52548 27.2804Z" fill="#03B1FF"/>
<path d="M9.95615 27.2804C7.45679 24.781 7.45679 20.7288 9.95615 18.2294L17.8757 10.3098C20.3751 7.81045 24.4274 7.81045 26.9267 10.3098L34.8463 18.2294C37.3457 20.7288 37.3457 24.781 34.8463 27.2804L26.9267 35.2C24.4274 37.6993 20.3751 37.6993 17.8757 35.2L9.95615 27.2804Z" fill="#051A80"/>
<path d="M15.8392 27.2804C13.3398 24.781 13.3398 20.7288 15.8392 18.2294L18.1019 15.9667C20.6013 13.4673 24.6536 13.4673 27.1529 15.9667L29.4157 18.2294C31.915 20.7288 31.915 24.781 29.4157 27.2804L27.1529 29.5431C24.6536 32.0425 20.6013 32.0425 18.1019 29.5431L15.8392 27.2804Z" fill="#030D40"/>
<path d="M22.3826 28.4149C25.1026 28.4149 26.7666 26.9749 26.7666 25.0069C26.7666 23.0709 25.2466 22.3829 24.4786 22.3029C25.2946 22.1109 26.3026 21.3429 26.3026 19.8549C26.3026 18.0789 24.8466 16.9109 22.5266 16.9109C19.9506 16.9109 18.6066 18.3349 18.6066 20.7029H20.7826C20.8146 19.3269 21.6626 18.9109 22.4786 18.9109C23.2946 18.9109 24.0306 19.3109 24.0306 20.2549C24.0306 20.7829 23.8226 21.6149 22.1906 21.6149H21.6306V23.2949H22.2866C23.8226 23.2949 24.3986 23.9829 24.3986 24.8629C24.3986 25.9829 23.4226 26.4469 22.4626 26.4469C21.4386 26.4469 20.4626 25.9509 20.4466 24.4469H18.2386C18.2226 26.8149 19.5026 28.4149 22.3826 28.4149Z" fill="white"/>
</svg>
