<svg width="46" height="47" viewBox="0 0 46 47" fill="none" xmlns="http://www.w3.org/2000/svg">
<path d="M4.52548 28.0255C2.02613 25.5261 2.02613 21.4739 4.52548 18.9745L18.1019 5.39807C20.6013 2.89871 24.6535 2.89871 27.1529 5.39807L40.7294 18.9745C43.2287 21.4739 43.2287 25.5261 40.7294 28.0255L27.1529 41.6019C24.6535 44.1013 20.6013 44.1013 18.1019 41.6019L4.52548 28.0255Z" fill="#FF2445"/>
<path d="M9.95615 28.0255C7.45679 25.5261 7.45679 21.4739 9.95615 18.9745L17.8757 11.0549C20.3751 8.55557 24.4274 8.55557 26.9267 11.0549L34.8463 18.9745C37.3457 21.4739 37.3457 25.5261 34.8463 28.0255L26.9267 35.9451C24.4274 38.4444 20.3751 38.4444 17.8757 35.9451L9.95615 28.0255Z" fill="#051A80"/>
<path d="M15.8392 28.0255C13.3398 25.5261 13.3398 21.4739 15.8392 18.9745L18.1019 16.7118C20.6013 14.2124 24.6536 14.2124 27.1529 16.7118L29.4157 18.9745C31.915 21.4739 31.915 25.5261 29.4157 28.0255L27.1529 30.2882C24.6536 32.7876 20.6013 32.7876 18.1019 30.2882L15.8392 28.0255Z" fill="#030D40"/>
<path d="M18.5072 28.472V29H26.4112V27.064H21.1792V27.016C21.1792 26.296 21.7872 25.704 23.3872 24.776C24.7312 24.024 26.4432 23.128 26.4432 20.936C26.4432 19 25.0992 17.656 22.5712 17.656C19.8032 17.656 18.6672 19.288 18.6672 21.272V21.592H20.9232V21.368C20.9232 20.104 21.6912 19.64 22.5392 19.64C23.2752 19.64 24.1392 19.944 24.1072 21.08C24.0912 22.328 22.9552 22.792 21.4512 23.656C19.0832 25.048 18.5072 26.44 18.5072 28.472Z" fill="white"/>
</svg>
