<svg width="24" height="24" viewBox="0 0 24 24" fill="none" xmlns="http://www.w3.org/2000/svg">
<path d="M6.75 17.25C6.75 16.8358 6.41421 16.5 6 16.5C5.58579 16.5 5.25 16.8358 5.25 17.25H6.75ZM5.25 5.75C5.25 6.16421 5.58579 6.5 6 6.5C6.41421 6.5 6.75 6.16421 6.75 5.75H5.25ZM8 2.75H19V1.25H8V2.75ZM20.25 4V19H21.75V4H20.25ZM19 20.25H8V21.75H19V20.25ZM6.75 19V17.25H5.25V19H6.75ZM6.75 5.75V4H5.25V5.75H6.75ZM8 20.25C7.30964 20.25 6.75 19.6904 6.75 19H5.25C5.25 20.5188 6.48122 21.75 8 21.75V20.25ZM20.25 19C20.25 19.6904 19.6904 20.25 19 20.25V21.75C20.5188 21.75 21.75 20.5188 21.75 19H20.25ZM19 2.75C19.6904 2.75 20.25 3.30964 20.25 4H21.75C21.75 2.48122 20.5188 1.25 19 1.25V2.75ZM8 1.25C6.48122 1.25 5.25 2.48122 5.25 4H6.75C6.75 3.30964 7.30964 2.75 8 2.75V1.25Z" fill="#3937DE"/>
<path d="M2.30881 12.2377C2.15281 12.1176 2.15281 11.8824 2.30881 11.7623L6.017 8.90771C6.21427 8.75585 6.5 8.89648 6.5 9.14543L6.5 14.8546C6.5 15.1035 6.21427 15.2441 6.017 15.0923L2.30881 12.2377Z" fill="#3937DE"/>
<rect x="5" y="11.1992" width="10" height="1.5" rx="0.75" fill="#3937DE"/>
</svg>
