<svg width="40" height="40" viewBox="0 0 40 40" fill="none" xmlns="http://www.w3.org/2000/svg">
<rect width="40" height="40" rx="20" fill="white"/>
<path d="M26 15.8H19V14.2H26C27.5463 14.2 28.8 15.4536 28.8 17V25C28.8 26.5464 27.5463 27.8 26 27.8H17C15.4536 27.8 14.2 26.5464 14.2 25V23H15.8V25C15.8 25.6628 16.3372 26.2 17 26.2H26C26.6627 26.2 27.2 25.6628 27.2 25V17C27.2 16.3373 26.6627 15.8 26 15.8Z" fill="#0A33FF"/>
<circle cx="24" cy="19" r="1" fill="#0A33FF"/>
<rect x="23.1001" y="20.4617" width="1.84615" height="3.54" fill="#0A33FF"/>
<path d="M13.109 12.0909C12.6572 12.0909 12.2909 12.4572 12.2909 12.9091V21.0909C12.2909 21.5428 12.6572 21.9091 13.109 21.9091H13.7227V19.7273H13.6545C13.3533 19.7273 13.1091 19.4831 13.1091 19.1819C13.1091 18.8806 13.3533 18.6364 13.6545 18.6364H16.6546C16.9558 18.6364 17.2 18.8806 17.2 19.1819C17.2 19.4831 16.9558 19.7273 16.6546 19.7273H16.5864V21.9091H17.2C17.6518 21.9091 18.0181 21.5428 18.0181 21.0909V12.9091C18.0181 12.4572 17.6518 12.0909 17.2 12.0909H13.109ZM15.7682 21.9091V19.7273H14.5409V21.9091H15.7682ZM11.2 12.9091C11.2 11.8547 12.0547 11 13.109 11H17.2C18.2543 11 19.109 11.8547 19.109 12.9091V21.0909C19.109 22.1453 18.2543 23 17.2 23H13.109C12.0547 23 11.2 22.1453 11.2 21.0909V12.9091ZM15.7 13.4546C15.7 13.7558 15.4557 14 15.1545 14C14.8533 14 14.609 13.7558 14.609 13.4546C14.609 13.1533 14.8533 12.9091 15.1545 12.9091C15.4557 12.9091 15.7 13.1533 15.7 13.4546ZM16.6545 14C16.9558 14 17.2 13.7558 17.2 13.4546C17.2 13.1533 16.9558 12.9091 16.6545 12.9091C16.3533 12.9091 16.1091 13.1533 16.1091 13.4546C16.1091 13.7558 16.3533 14 16.6545 14ZM14.2 13.4546C14.2 13.7558 13.9558 14 13.6545 14C13.3533 14 13.1091 13.7558 13.1091 13.4546C13.1091 13.1533 13.3533 12.9091 13.6545 12.9091C13.9558 12.9091 14.2 13.1533 14.2 13.4546ZM15.1545 15.9092C15.4557 15.9092 15.7 15.6649 15.7 15.3637C15.7 15.0625 15.4557 14.8182 15.1545 14.8182C14.8533 14.8182 14.609 15.0625 14.609 15.3637C14.609 15.6649 14.8533 15.9092 15.1545 15.9092ZM17.2 15.3637C17.2 15.6649 16.9558 15.9092 16.6545 15.9092C16.3533 15.9092 16.1091 15.6649 16.1091 15.3637C16.1091 15.0625 16.3533 14.8182 16.6545 14.8182C16.9558 14.8182 17.2 15.0625 17.2 15.3637ZM13.6545 15.9092C13.9558 15.9092 14.2 15.6649 14.2 15.3637C14.2 15.0625 13.9558 14.8182 13.6545 14.8182C13.3533 14.8182 13.1091 15.0625 13.1091 15.3637C13.1091 15.6649 13.3533 15.9092 13.6545 15.9092ZM15.7 17.2727C15.7 17.574 15.4557 17.8182 15.1545 17.8182C14.8533 17.8182 14.609 17.574 14.609 17.2727C14.609 16.9715 14.8533 16.7273 15.1545 16.7273C15.4557 16.7273 15.7 16.9715 15.7 17.2727ZM16.6545 17.8182C16.9558 17.8182 17.2 17.574 17.2 17.2727C17.2 16.9715 16.9558 16.7273 16.6545 16.7273C16.3533 16.7273 16.1091 16.9715 16.1091 17.2727C16.1091 17.574 16.3533 17.8182 16.6545 17.8182ZM14.2 17.2727C14.2 17.574 13.9558 17.8182 13.6545 17.8182C13.3533 17.8182 13.1091 17.574 13.1091 17.2727C13.1091 16.9715 13.3533 16.7273 13.6545 16.7273C13.9558 16.7273 14.2 16.9715 14.2 17.2727Z" fill="#0A33FF"/>
</svg>
