<svg width="24" height="24" viewBox="0 0 24 24" fill="none"
  xmlns="http://www.w3.org/2000/svg">
  <path fillRule="evenodd" clipRule="evenodd" d="M19 6.4H5C4.66863 6.4 4.4 6.66863 4.4 7V9.19995H19.6V7C19.6 6.66863 19.3314 6.4 19 6.4ZM4.4 17V10.8H19.6V17C19.6 17.3314 19.3314 17.6 19 17.6H5C4.66863 17.6 4.4 17.3314 4.4 17ZM5 5C3.89543 5 3 5.89543 3 7V17C3 18.1046 3.89543 19 5 19H19C20.1046 19 21 18.1046 21 17V7C21 5.89543 20.1046 5 19 5H5ZM14.5 13.5H17.5V15.5H14.5V13.5ZM13.5 13.5C13.5 12.9477 13.9477 12.5 14.5 12.5H17.5C18.0523 12.5 18.5 12.9477 18.5 13.5V15.5C18.5 16.0523 18.0523 16.5 17.5 16.5H14.5C13.9477 16.5 13.5 16.0523 13.5 15.5V13.5Z" fill="#030D40"/>
</svg>
