<svg width="24" height="24" viewBox="0 0 24 24" fill="none"
  xmlns="http://www.w3.org/2000/svg">
  <path fillRule="evenodd" clipRule="evenodd" d="M11.5761 3.3218C11.8355 3.15966 12.1646 3.15966 12.4241 3.3218L20.4241 8.3218C20.7987 8.55596 20.9126 9.04953 20.6785 9.42419C20.4443 9.79886 19.9507 9.91276 19.5761 9.67859L12.0001 4.94359L4.42406 9.67859C4.04939 9.91276 3.55583 9.79886 3.32166 9.42419C3.08749 9.04953 3.20139 8.55596 3.57606 8.3218L11.5761 3.3218ZM3.19995 20.0002C3.19995 19.5584 3.55812 19.2002 3.99995 19.2002H20C20.4418 19.2002 20.8 19.5584 20.8 20.0002C20.8 20.442 20.4418 20.8002 20 20.8002H3.99995C3.55812 20.8002 3.19995 20.442 3.19995 20.0002ZM6.79995 11.0002C6.79995 10.5584 6.44178 10.2002 5.99995 10.2002C5.55812 10.2002 5.19995 10.5584 5.19995 11.0002V17.0002C5.19995 17.442 5.55812 17.8002 5.99995 17.8002C6.44178 17.8002 6.79995 17.442 6.79995 17.0002V11.0002ZM8.99995 10.2002C9.44178 10.2002 9.79995 10.5584 9.79995 11.0002V17.0002C9.79995 17.442 9.44178 17.8002 8.99995 17.8002C8.55812 17.8002 8.19995 17.442 8.19995 17.0002V11.0002C8.19995 10.5584 8.55812 10.2002 8.99995 10.2002ZM12.8 11.0002C12.8 10.5584 12.4418 10.2002 12 10.2002C11.5581 10.2002 11.2 10.5584 11.2 11.0002V17.0002C11.2 17.442 11.5581 17.8002 12 17.8002C12.4418 17.8002 12.8 17.442 12.8 17.0002V11.0002ZM15 10.2002C15.4418 10.2002 15.8 10.5584 15.8 11.0002V17.0002C15.8 17.442 15.4418 17.8002 15 17.8002C14.5581 17.8002 14.2 17.442 14.2 17.0002V11.0002C14.2 10.5584 14.5581 10.2002 15 10.2002ZM18.8 11.0002C18.8 10.5584 18.4418 10.2002 18 10.2002C17.5581 10.2002 17.2 10.5584 17.2 11.0002V17.0002C17.2 17.442 17.5581 17.8002 18 17.8002C18.4418 17.8002 18.8 17.442 18.8 17.0002V11.0002Z" fill="#030D40"/>
</svg>
