<svg width="225" height="48" viewBox="0 0 225 48" fill="none"
  xmlns="http://www.w3.org/2000/svg">
  <path d="M57.828 13.92H66.9C71.892 13.92 74.1448 15.9072 74.1448 18.832C74.1448 20.992 72.9704 22.2688 70.7848 22.8928C74.1128 23.632 75.6776 25.4496 75.6776 28.0032C75.6776 31.2384 73.1336 33.7952 67.2264 33.7952H57.828V13.92ZM66.7048 22.0416C68.564 22.0416 69.8056 21.248 69.8056 19.4848C69.8056 17.7216 68.564 17.072 66.7048 17.072H62.1032V22.0416H66.7048ZM67.0312 30.6464C70.0648 30.6464 71.2392 29.312 71.2392 27.6064C71.2392 25.9008 70.0648 24.512 67.0312 24.512H62.1032V30.6464H67.0312Z" fill="#030D40"/>
  <path d="M76.3912 13.92H80.5672V33.7984H76.3912V13.92Z" fill="#030D40"/>
  <path d="M81.2841 26.4128C81.2841 21.0752 85.4281 18.7456 89.7033 18.7456C93.9785 18.7456 98.1225 21.0752 98.1225 26.4128C98.1225 31.7504 93.9465 34.08 89.7033 34.08C85.4601 34.08 81.2841 31.7504 81.2841 26.4128ZM89.7033 31.04C92.1513 31.04 94.1737 29.6192 94.1737 26.4128C94.1737 23.2064 92.1513 21.7856 89.7033 21.7856C87.2553 21.7856 85.2009 23.2064 85.2009 26.4128C85.2009 29.6192 87.2233 31.04 89.7033 31.04Z" fill="#030D40"/>
  <path d="M98.02 26.4416C98.02 20.9888 102.228 18.7456 106.471 18.7456C109.441 18.7456 113.454 19.7952 114.074 24.5664H110.289C109.863 22.5792 108.366 21.8112 106.439 21.8112C103.537 21.8112 101.937 23.6576 101.937 26.4384C101.937 29.2192 103.537 31.0112 106.439 31.0112C108.43 31.0112 109.866 30.1888 110.289 28.2304H114.074C113.553 32.9728 109.473 34.08 106.471 34.08C102.231 34.08 98.02 31.8944 98.02 26.4416Z" fill="#030D40"/>
  <path d="M114.855 13.92H119.031V25.648L125.95 19.0304H130.583L123.633 25.3632L131.495 33.7952H126.862L121.086 27.6608L119.031 29.536V33.7952H114.855V13.92Z" fill="#030D40"/>
  <path d="M131.556 13.92H139.844C146.99 13.92 150.644 17.4976 150.644 23.8592C150.644 30.2208 146.99 33.7984 139.844 33.7984H131.556V13.92ZM139.418 30.5312C144.41 30.5312 146.27 28.4864 146.27 23.8592C146.27 19.232 144.41 17.1872 139.418 17.1872H135.828V30.5312H139.418Z" fill="#0A33FF"/>
  <path d="M150.903 29.936C150.903 26.8704 153.678 25.9904 156.775 25.6192L159.94 25.2512C161.604 25.0528 162.094 24.7968 162.094 24.0288V23.7152C162.094 21.9264 160.852 21.3856 159.025 21.3856C157.198 21.3856 155.729 21.9264 155.729 23.5456V23.8592H151.812V23.2064C151.812 20.3392 154.062 18.7488 159.121 18.7488C164.18 18.7488 166.202 20.3104 166.202 23.5776V33.7984H162.19V31.1584H162.026C161.668 31.9808 160.135 34.0832 156.35 34.0832C153.479 34.0832 150.9 32.8896 150.9 29.936H150.903ZM157.722 31.44C160.398 31.44 162.094 29.8784 162.094 28.6848V26.8096C161.866 27.1488 161.05 27.3216 160.103 27.4336L157.396 27.8016C155.633 28.0288 155.079 28.7392 155.079 29.6192C155.079 30.7552 155.959 31.4368 157.722 31.4368V31.44Z" fill="#0A33FF"/>
  <path d="M175.863 21.7568C173.578 21.7568 171.914 22.9504 171.914 25.3632V33.7952H167.738V19.0304H171.914V22.0704H172.046C172.372 20.7936 174.004 18.7488 177.591 18.7488C180.919 18.7488 183.498 20.5088 183.498 24.512V33.7984H179.322V25.3664C179.322 22.9536 178.116 21.76 175.863 21.76V21.7568Z" fill="#0A33FF"/>
  <path d="M184.247 26.4416C184.247 20.9888 188.455 18.7456 192.698 18.7456C195.668 18.7456 199.681 19.7952 200.302 24.5664H196.516C196.09 22.5792 194.59 21.8112 192.666 21.8112C189.764 21.8112 188.164 23.6576 188.164 26.4384C188.164 29.2192 189.764 31.0112 192.666 31.0112C194.657 31.0112 196.094 30.1888 196.516 28.2304H200.302C199.78 32.9728 195.7 34.08 192.698 34.08C188.455 34.08 184.247 31.8944 184.247 26.4416Z" fill="#0A33FF"/>
  <path d="M200.263 26.384C200.263 20.9312 204.145 18.7456 208.583 18.7456C213.022 18.7456 216.545 20.848 216.545 26.2432C216.545 26.7552 216.513 27.0368 216.446 27.3504H204.209C204.471 30.1056 206.068 31.296 208.743 31.296C210.865 31.296 212.103 30.5856 212.593 29.168H216.314C215.399 32.5184 212.433 34.08 208.647 34.08C204.241 34.08 200.263 31.8944 200.263 26.384ZM212.596 25.136C212.5 23.0624 211.258 21.5296 208.516 21.5296C206.068 21.5296 204.535 22.7232 204.241 25.136H212.593H212.596Z" fill="#0A33FF"/>
  <path d="M18.4553 18.4928H13.3385V23.6128H18.4553V18.4928Z" fill="#03B1FF"/>
  <path d="M33.9081 12.9888H28.7913V18.1088H33.9081V12.9888Z" fill="#030D40"/>
  <path d="M28.3272 18.5248H23.2104V23.6448H28.3272V18.5248Z" fill="#03B1FF"/>
  <path d="M39.4504 12.9664H34.3336V18.0864H39.4504V12.9664Z" fill="#03B1FF"/>
  <path d="M45.0249 18.5376H39.9081V23.6576H45.0249V18.5376Z" fill="#0265E8"/>
  <path d="M45.0249 29.6416H39.9081V34.7616H45.0249V29.6416Z" fill="#0265E8"/>
  <path d="M33.9081 24.112H28.7913V29.232H33.9081V24.112Z" fill="#030D40"/>
  <path d="M23.6329 12.736H18.5161V17.856H23.6329V12.736Z" fill="#0A33FF"/>
  <path d="M28.3272 29.6576H23.2104V34.7776H28.3272V29.6576Z" fill="#030D40"/>
  <path d="M39.4504 24.0832H34.3336V29.2032H39.4504V24.0832Z" fill="#0265E8"/>
  <path d="M28.3272 24.112H23.2104V29.232H28.3272V24.112Z" fill="#0A33FF"/>
  <path d="M28.3272 35.2H23.2104V40.32H28.3272V35.2Z" fill="#051A80"/>
  <path d="M33.9081 35.2H28.7913V40.32H33.9081V35.2Z" fill="#0A33FF"/>
  <path d="M39.4504 35.2H34.3336V40.32H39.4504V35.2Z" fill="#030D40"/>
  <path d="M13.2969 7.67999H8.18005V12.8H13.2969V7.67999Z" fill="#030D40"/>
</svg>
