<svg width="24" height="25" viewBox="0 0 24 25" fill="none"
  xmlns="http://www.w3.org/2000/svg">
  <path fillRule="evenodd" clipRule="evenodd" d="M19 12.5C19 16.366 15.866 19.5 12 19.5C8.13401 19.5 5 16.366 5 12.5C5 8.63401 8.13401 5.5 12 5.5C15.866 5.5 19 8.63401 19 12.5ZM21 12.5C21 17.4706 16.9706 21.5 12 21.5C7.02944 21.5 3 17.4706 3 12.5C3 7.52944 7.02944 3.5 12 3.5C16.9706 3.5 21 7.52944 21 12.5ZM8.46446 10.3787L9.87867 8.96447L12 11.0858L14.1213 8.96447L15.5355 10.3787L13.4142 12.5L15.5355 14.6213L14.1213 16.0355L12 13.9142L9.87867 16.0355L8.46446 14.6213L10.5858 12.5L8.46446 10.3787Z" fill="white"/>
</svg>
