<svg width="24" height="24" viewBox="0 0 24 24" fill="none" xmlns="http://www.w3.org/2000/svg">
<circle cx="16.5" cy="7" r="1.5" fill="#030D40"/>
<path d="M12.441 5H5C3.89543 5 3 5.89543 3 7C3 8.10457 3.89543 9 5 9H12.5858C12.851 9 13.1054 9.10536 13.2929 9.29289L14.1213 10.1213C14.6839 10.6839 15.447 11 16.2426 11H17C19.2091 11 21 9.20914 21 7C21 4.79086 19.2091 3 17 3H15.6771C14.6492 3 13.7097 3.5807 13.25 4.5C13.0968 4.80643 12.7836 5 12.441 5Z" stroke="#030D40" stroke-width="2"/>
<rect x="6" y="9" width="2" height="3" rx="1" fill="#030D40"/>
<rect x="9" y="9" width="2" height="3" rx="1" fill="#030D40"/>
<rect x="3" y="14" width="18" height="6" rx="1" stroke="#030D40" stroke-width="2" stroke-linejoin="round"/>
<circle cx="9" cy="17" r="0.5" stroke="#030D40"/>
<circle cx="6" cy="17" r="0.5" stroke="#030D40"/>
<circle cx="12" cy="17" r="0.5" stroke="#030D40"/>
<circle cx="15" cy="17" r="0.5" stroke="#030D40"/>
</svg>
