<svg width="16" height="17" viewBox="0 0 16 17" fill="none" xmlns="http://www.w3.org/2000/svg">
<path fill-rule="evenodd" clip-rule="evenodd" d="M10.989 3.90072C10.707 3.66405 10.2865 3.70084 10.0498 3.98289L9.62126 4.49359L11.664 6.20769L12.0926 5.69699C12.3292 5.41494 12.2924 4.99444 12.0104 4.75777L10.989 3.90072ZM7.82882 12.8526C7.55066 13.1841 7.17248 13.4165 6.75105 13.5148L4.80334 13.9691C3.93769 14.171 3.12058 13.4854 3.16911 12.5978L3.27832 10.6008C3.30195 10.1687 3.46509 9.75592 3.74325 9.42443L9.02839 3.12584C9.73839 2.27969 10.9999 2.16932 11.8461 2.87933L12.8674 3.73638C13.7136 4.44638 13.824 5.70789 13.114 6.55404L7.82882 12.8526ZM8.33568 6.02567L4.76464 10.2815C4.67192 10.392 4.61754 10.5296 4.60966 10.6736L4.50046 12.6706L6.44817 12.2163C6.58865 12.1835 6.7147 12.1061 6.80742 11.9956L10.3785 7.73977L8.33568 6.02567Z" fill="#030D40"/>
</svg>
