<svg width="24" height="25" viewBox="0 0 24 25" fill="none" xmlns="http://www.w3.org/2000/svg">
<path fill-rule="evenodd" clip-rule="evenodd" d="M16.4833 5.60163C16.0602 5.24662 15.4294 5.30181 15.0744 5.72488L14.4316 6.49093L17.4958 9.06208L18.1386 8.29603C18.4936 7.87296 18.4384 7.2422 18.0154 6.8872L16.4833 5.60163ZM11.743 19.0295C11.3257 19.5267 10.7585 19.8752 10.1263 20.0227L7.20477 20.7042C5.90629 21.0071 4.68062 19.9786 4.75342 18.6473L4.91724 15.6517C4.95268 15.0036 5.19739 14.3844 5.61463 13.8872L13.5423 4.43931C14.6073 3.17008 16.4996 3.00453 17.7688 4.06954L19.3009 5.35511C20.5701 6.42012 20.7357 8.31238 19.6707 9.58161L11.743 19.0295ZM12.5033 8.78906L7.14672 15.1728C7.00763 15.3385 6.92607 15.5449 6.91425 15.7609L6.75044 18.7565L9.67201 18.075C9.88272 18.0258 10.0718 17.9097 10.2109 17.7439L15.5675 11.3602L12.5033 8.78906Z" fill="#7F818A"/>
</svg>
