<svg width="24" height="24" viewBox="0 0 24 24" fill="none"
  xmlns="http://www.w3.org/2000/svg">
  <path fillRule="evenodd" clipRule="evenodd" d="M14.6843 7.11332C13.7026 6.41227 12.5019 6 11.2019 6C7.88819 6 5.2019 8.68629 5.2019 12C5.2019 15.3137 7.88819 18 11.2019 18C12.5019 18 13.7026 17.5877 14.6843 16.8867C15.1337 16.5657 15.7583 16.6699 16.0792 17.1193C16.4002 17.5688 16.296 18.1933 15.8466 18.5143C14.5369 19.4495 12.9322 20 11.2019 20C6.78362 20 3.2019 16.4183 3.2019 12C3.2019 7.58172 6.78362 4 11.2019 4C12.9322 4 14.5369 4.55048 15.8466 5.48573C16.296 5.80668 16.4002 6.43122 16.0792 6.88067C15.7583 7.33012 15.1337 7.43428 14.6843 7.11332ZM17.7106 8.16793C17.2511 8.47429 17.1269 9.09516 17.4333 9.55468L18.3968 11H11.2654C10.7131 11 10.2654 11.4477 10.2654 12C10.2654 12.5523 10.7131 13 11.2654 13H18.3968L17.4333 14.4453C17.1269 14.9048 17.2511 15.5257 17.7106 15.832C18.1702 16.1384 18.791 16.0142 19.0974 15.5547L20.7276 13.1094C21.1754 12.4376 21.1754 11.5624 20.7276 10.8906L19.0974 8.44528C18.791 7.98576 18.1702 7.86158 17.7106 8.16793Z" fill="#030D40"/>
</svg>
