<svg width="46" height="46" viewBox="0 0 46 46" fill="none" xmlns="http://www.w3.org/2000/svg">
<path d="M4.52548 27.7706C2.02613 25.2712 2.02613 21.219 4.52548 18.7196L18.1019 5.14318C20.6013 2.64383 24.6535 2.64383 27.1529 5.14318L40.7294 18.7196C43.2287 21.219 43.2287 25.2712 40.7294 27.7706L27.1529 41.3471C24.6535 43.8464 20.6013 43.8464 18.1019 41.3471L4.52548 27.7706Z" fill="#FFC924"/>
<path d="M9.95615 27.7706C7.45679 25.2712 7.45679 21.219 9.95615 18.7196L17.8757 10.8C20.3751 8.30068 24.4274 8.30068 26.9267 10.8L34.8463 18.7196C37.3457 21.219 37.3457 25.2712 34.8463 27.7706L26.9267 35.6902C24.4274 38.1896 20.3751 38.1896 17.8757 35.6902L9.95615 27.7706Z" fill="#051A80"/>
<path d="M15.8392 27.7706C13.3398 25.2712 13.3398 21.219 15.8392 18.7196L18.1019 16.4569C20.6013 13.9575 24.6536 13.9575 27.1529 16.4569L29.4157 18.7196C31.915 21.219 31.915 25.2712 29.4157 27.7706L27.1529 30.0333C24.6536 32.5327 20.6013 32.5327 18.1019 30.0333L15.8392 27.7706Z" fill="#030D40"/>
<path d="M21.7662 20.3931V28.7451H24.1022V17.5451H21.7662C21.3982 18.6811 20.5822 19.1611 19.3342 19.3051V21.2251C20.2142 21.2251 21.1422 21.0491 21.7662 20.3931Z" fill="white"/>
</svg>
