<svg width="25" height="24" viewBox="0 0 25 24" fill="none"
  xmlns="http://www.w3.org/2000/svg">
  <path d="M6.93258 14.087L6.23639 16.686L3.6918 16.7399C2.93134 15.3294 2.5 13.7156 2.5 12.0007C2.5 10.3424 2.9033 8.77859 3.61817 7.40163H3.61871L5.88411 7.81696L6.87649 10.0688C6.66879 10.6743 6.55558 11.3243 6.55558 12.0007C6.55566 12.7348 6.68863 13.4381 6.93258 14.087Z" fill="#FBBB00"/>
  <path d="M22.3253 10.1323C22.4401 10.7373 22.5 11.362 22.5 12.0005C22.5 12.7165 22.4247 13.4149 22.2813 14.0885C21.7945 16.3809 20.5225 18.3826 18.7603 19.7992L18.7598 19.7986L15.9064 19.653L15.5026 17.132C16.6718 16.4463 17.5856 15.3732 18.0669 14.0885H12.7195V10.1323H18.145H22.3253Z" fill="#518EF8"/>
  <path d="M18.7614 19.7983L18.762 19.7989C17.0482 21.1764 14.8712 22.0006 12.5013 22.0006C8.69293 22.0006 5.38183 19.8719 3.69275 16.7394L6.93353 14.0866C7.77805 16.3405 9.95231 17.945 12.5013 17.945C13.5969 17.945 14.6234 17.6488 15.5042 17.1317L18.7614 19.7983Z" fill="#28B446"/>
  <path d="M18.8828 4.30227L15.6431 6.95456C14.7315 6.38477 13.654 6.05562 12.4996 6.05562C9.89287 6.05562 7.67795 7.73369 6.87573 10.0684L3.61792 7.40129H3.61737C5.28173 4.19238 8.63458 2 12.4996 2C14.926 2 17.1508 2.86433 18.8828 4.30227Z" fill="#F14336"/>
</svg>
