<svg width="24" height="24" viewBox="0 0 24 24" fill="none"
  xmlns="http://www.w3.org/2000/svg">
  <path fillRule="evenodd" clipRule="evenodd" d="M19 12C19 15.866 15.866 19 12 19C8.13401 19 5 15.866 5 12C5 8.13401 8.13401 5 12 5C15.866 5 19 8.13401 19 12ZM21 12C21 16.9706 16.9706 21 12 21C7.02944 21 3 16.9706 3 12C3 7.02944 7.02944 3 12 3C16.9706 3 21 7.02944 21 12ZM11.136 12.3941C11.0613 12.5901 11.024 12.8281 11.024 13.1081V13.7241H13.124V13.3181C13.124 13.1594 13.1613 13.0007 13.236 12.8421C13.3106 12.6834 13.4553 12.5201 13.67 12.3521C14.006 12.0907 14.2813 11.8527 14.496 11.6381C14.72 11.4141 14.8973 11.1947 15.028 10.9801C15.168 10.7654 15.266 10.5507 15.322 10.3361C15.378 10.1121 15.406 9.86473 15.406 9.59406C15.406 9.14606 15.322 8.74939 15.154 8.40406C14.986 8.05873 14.7573 7.76939 14.468 7.53606C14.1786 7.30273 13.8426 7.13006 13.46 7.01806C13.0866 6.89673 12.6853 6.83606 12.256 6.83606C11.276 6.83606 10.4733 7.09739 9.84798 7.62006C9.22265 8.13339 8.85865 8.88473 8.75598 9.87406L10.912 10.0141C10.94 9.66873 11.066 9.37473 11.29 9.13206C11.5233 8.88939 11.8593 8.76806 12.298 8.76806C12.5873 8.76806 12.8253 8.85673 13.012 9.03406C13.208 9.20206 13.306 9.44006 13.306 9.74806C13.306 9.90673 13.2593 10.0607 13.166 10.2101C13.082 10.3501 12.9606 10.5041 12.802 10.6721C12.6433 10.8307 12.452 11.0034 12.228 11.1901C12.0133 11.3767 11.7753 11.5961 11.514 11.8481C11.3366 12.0161 11.2106 12.1981 11.136 12.3941ZM10.884 15.2921C10.8186 15.4507 10.786 15.6187 10.786 15.7961C10.786 15.9734 10.8186 16.1414 10.884 16.3001C10.9493 16.4587 11.038 16.5987 11.15 16.7201C11.2713 16.8321 11.4113 16.9207 11.57 16.9861C11.7286 17.0514 11.8966 17.0841 12.074 17.0841C12.2513 17.0841 12.4193 17.0514 12.578 16.9861C12.7366 16.9207 12.872 16.8321 12.984 16.7201C13.1053 16.5987 13.1986 16.4587 13.264 16.3001C13.3293 16.1414 13.362 15.9734 13.362 15.7961C13.362 15.6187 13.3293 15.4507 13.264 15.2921C13.1986 15.1334 13.1053 14.9981 12.984 14.8861C12.872 14.7647 12.7366 14.6714 12.578 14.6061C12.4193 14.5407 12.2513 14.5081 12.074 14.5081C11.8966 14.5081 11.7286 14.5407 11.57 14.6061C11.4113 14.6714 11.2713 14.7647 11.15 14.8861C11.038 14.9981 10.9493 15.1334 10.884 15.2921Z" fill="#030D40"/>
</svg>
