<svg width="16" height="17" viewBox="0 0 16 17" fill="none"
  xmlns="http://www.w3.org/2000/svg">
  <path fillRule="evenodd" clipRule="evenodd" d="M8 13.1667C10.5773 13.1667 12.6667 11.0773 12.6667 8.5C12.6667 5.92267 10.5773 3.83333 8 3.83333C5.42267 3.83333 3.33333 5.92267 3.33333 8.5C3.33333 11.0773 5.42267 13.1667 8 13.1667ZM8 14.5C11.3137 14.5 14 11.8137 14 8.5C14 5.18629 11.3137 2.5 8 2.5C4.68629 2.5 2 5.18629 2 8.5C2 11.8137 4.68629 14.5 8 14.5Z" fill="#7F818A"/>
  <circle cx="7.99996" cy="5.99984" r="0.833333" fill="#7F818A"/>
  <rect x="7.33337" y="7.6665" width="1.33333" height="4" fill="#7F818A"/>
</svg>
