<svg width="24" height="24" viewBox="0 0 24 24" fill="none" xmlns="http://www.w3.org/2000/svg">
<path d="M4 3.8H20C20.6627 3.8 21.2 4.33726 21.2 5V15C21.2 15.6627 20.6627 16.2 20 16.2H15.1602C14.8893 16.2 14.6251 16.2847 14.4046 16.4421L9.11625 20.2196C8.98387 20.3141 8.8 20.2195 8.8 20.0568V17.5C8.8 16.782 8.21797 16.2 7.5 16.2H4C3.33726 16.2 2.8 15.6627 2.8 15V5C2.8 4.33726 3.33726 3.8 4 3.8Z" stroke="#030D40" stroke-width="1.6"/>
<path d="M11.5496 6.93606C11.4407 7.03345 11.3258 7.14644 11.2109 7.27571C10.7677 7.77435 10.3234 8.51471 10.2213 9.55011H11.5496V6.93606ZM11.5496 10.4501H10.2213C10.3233 11.4856 10.7676 12.226 11.2109 12.7247C11.3258 12.8539 11.4407 12.9669 11.5496 13.0643V10.4501ZM9.31768 9.55011C9.42102 8.28319 9.95049 7.35689 10.4926 6.72983C9.38706 7.24028 8.58433 8.29486 8.42784 9.55011H9.31768ZM8.42787 10.4501H9.31766C9.42094 11.7167 9.95012 12.6428 10.4921 13.2699C9.38687 12.7594 8.5844 11.7051 8.42787 10.4501ZM12.4496 10.4501H13.7787C13.6767 11.4856 13.2324 12.226 12.7891 12.7247C12.6739 12.8543 12.5587 12.9675 12.4496 13.0651V10.4501ZM13.7787 9.55011H12.4496V6.93528C12.5587 7.03284 12.6739 7.1461 12.7891 7.27571C13.2323 7.77435 13.6766 8.51471 13.7787 9.55011ZM14.6823 10.4501C14.5791 11.7167 14.0499 12.6428 13.5079 13.2699C14.6131 12.7594 15.4156 11.7051 15.5721 10.4501H14.6823ZM15.5722 9.55011H14.6823C14.579 8.28319 14.0495 7.35689 13.5074 6.72983C14.6129 7.24028 15.4157 8.29486 15.5722 9.55011ZM12 14.5C14.4853 14.5 16.5 12.4853 16.5 10C16.5 7.51472 14.4853 5.5 12 5.5C9.51472 5.5 7.5 7.51472 7.5 10C7.5 12.4853 9.51472 14.5 12 14.5Z" fill="#030D40"/>
</svg>
