<svg width="16" height="17" viewBox="0 0 16 17" fill="none"
  xmlns="http://www.w3.org/2000/svg">
  <path fillRule="evenodd" clipRule="evenodd" d="M5.54357 2.93571C5.57114 2.68766 5.7808 2.5 6.03037 2.5H9.70383C9.86127 2.5 10.0091 2.57568 10.1012 2.70341C10.1932 2.83113 10.2183 2.99532 10.1685 3.14468L9.21262 6.01229C9.18619 6.09157 9.24521 6.17346 9.32878 6.17346H11.5406C11.7212 6.17346 11.8872 6.27288 11.9724 6.43214C12.0576 6.5914 12.0483 6.78464 11.9481 6.93494L7.05015 14.2818C6.92484 14.4698 6.68723 14.5477 6.47497 14.4704C6.26272 14.3931 6.13087 14.1806 6.15582 13.9561L6.70763 8.98977H6.10217C5.44534 8.98977 4.93434 8.41884 5.00687 7.76604L5.54357 2.93571ZM6.46876 3.47959L5.98047 7.87421C5.97241 7.94675 6.02919 8.01018 6.10217 8.01018H7.25486C7.39418 8.01018 7.5269 8.06951 7.61982 8.17332C7.71273 8.27713 7.75704 8.4156 7.74166 8.55407L7.35172 12.0635L10.6254 7.15304H9.32878C8.57658 7.15304 8.04543 6.41612 8.2833 5.70251L9.02428 3.47959H6.46876Z" fill="#03B1FF"/>
</svg>
