<svg width="24" height="24" viewBox="0 0 24 24" fill="none" xmlns="http://www.w3.org/2000/svg">
<path d="M7 6C7 5.44772 7.44772 5 8 5H16C16.5523 5 17 5.44772 17 6V9H17L12.6 12.3C12.2444 12.5667 11.7556 12.5667 11.4 12.3L6.99996 9H7V6ZM5 7.99642V6C5 4.34315 6.34315 3 8 3H16C17.6569 3 19 4.34315 19 6V7.99642C20.0332 8.00069 21 8.81863 21 10V18C21 19.6569 19.6569 21 18 21H6C4.34315 21 3 19.6569 3 18V10C3 8.81863 3.96681 8.00069 5 7.99642ZM13.8 13.9L19 10V18C19 18.5523 18.5523 19 18 19H6C5.44772 19 5 18.5523 5 18V10L10.2 13.9C11.2667 14.7 12.7333 14.7 13.8 13.9Z" fill="#030D40"/>
</svg>
