<svg width="24" height="24" viewBox="0 0 24 24" fill="none" xmlns="http://www.w3.org/2000/svg">
<path d="M11.9589 3C11.0445 3 10.2974 3.71579 10.2473 4.61757C10.0239 4.66584 9.77278 4.74226 9.51056 4.86229C8.6023 5.27803 7.68284 6.1624 7.26888 7.86437C6.93609 9.23255 6.86133 9.88855 6.81935 10.2568L6.81935 10.2568C6.80883 10.3492 6.80036 10.4234 6.79041 10.4863C6.76104 10.6718 6.74232 10.7601 6.07277 11.9257C5.73257 12.518 5.25447 13.1758 4.73048 13.8246C4.01966 14.7048 3.97672 15.8342 4.35952 16.7195C4.74493 17.6109 5.60913 18.3527 6.77894 18.3527H9.03948C9.33683 19.7844 10.4343 21 11.9589 21C13.4834 21 14.5809 19.7844 14.8782 18.3527H17.2486C19.5791 18.3527 20.6489 15.5632 19.2736 13.885C18.7113 13.199 18.1948 12.5085 17.8367 11.9117C17.1879 10.8302 17.1493 10.666 17.1141 10.4368C17.103 10.3643 17.0936 10.2803 17.0823 10.1787L17.0823 10.1786V10.1786L17.0822 10.1785C17.0384 9.78551 16.9651 9.12923 16.6476 7.85907C16.2048 6.08782 15.2955 5.18402 14.3633 4.7848C14.1167 4.67922 13.8805 4.6142 13.6676 4.57535C13.5969 3.69355 12.8589 3 11.9589 3ZM13.6884 6.36066C14.0628 6.52098 14.6534 6.9506 14.9845 8.27481C15.2705 9.41908 15.3305 9.94873 15.3758 10.3494L15.3758 10.3494C15.3898 10.4728 15.4023 10.584 15.4197 10.6971C15.5125 11.3012 15.7299 11.7321 16.3667 12.7936C16.7874 13.4949 17.3641 14.2596 17.9476 14.9716C18.5085 15.656 17.9727 16.6384 17.2486 16.6384H6.77894C6.40625 16.6384 6.09508 16.414 5.93302 16.0392C5.76835 15.6583 5.80585 15.2215 6.06416 14.9017C6.61538 14.2191 7.15556 13.4824 7.55928 12.7796C8.17544 11.7069 8.39423 11.3189 8.4836 10.7544C8.49954 10.6537 8.51114 10.5536 8.52438 10.4392C8.56856 10.0576 8.63111 9.51727 8.9346 8.26952C9.2288 7.05994 9.80935 6.61086 10.224 6.42104C10.4506 6.31732 10.6634 6.27562 10.8177 6.26021C10.8941 6.25259 10.9532 6.2517 10.9885 6.25226C11.0044 6.25251 11.0152 6.25305 11.0201 6.25334L11.0561 6.25718L12.8978 6.25726L12.9667 6.24399C12.971 6.24341 12.9792 6.24242 12.9908 6.24136C13.0216 6.23856 13.0748 6.23549 13.1442 6.23806C13.2845 6.24326 13.479 6.27097 13.6884 6.36066ZM11.9589 19.2857C11.56 19.2857 11.0903 18.9853 10.8439 18.4286H13.0738C12.8274 18.9853 12.3577 19.2857 11.9589 19.2857Z" fill="#030D40"/>
</svg>
