<svg width="24" height="24" viewBox="0 0 24 24" fill="none" xmlns="http://www.w3.org/2000/svg">
<path d="M8.29442 8.30769C9.31403 8.30769 10.1406 7.48114 10.1406 6.46154C10.1406 5.44194 9.31403 4.61538 8.29442 4.61538C7.27482 4.61538 6.44827 5.44194 6.44827 6.46154C6.44827 7.48114 7.27482 8.30769 8.29442 8.30769ZM8.29442 9.92308C10.2062 9.92308 11.756 8.37329 11.756 6.46154C11.756 4.54978 10.2062 3 8.29442 3C6.38267 3 4.83289 4.54978 4.83289 6.46154C4.83289 8.37329 6.38267 9.92308 8.29442 9.92308Z" fill="#030D40"/>
<path d="M4.73776 13.3846H11.8513C11.6688 12.3537 11.3092 11.5049 10.7957 10.9236C10.2889 10.3499 9.53731 9.923 8.29454 9.923C7.05176 9.923 6.3002 10.3499 5.79337 10.9236C5.27988 11.5049 4.92021 12.3537 4.73776 13.3846ZM4.60087 13.3845C4.6002 13.3845 4.59988 13.3844 4.59989 13.3844L4.60087 13.3845ZM3.10073 13.3899C3.48973 10.7375 4.93251 8.30762 8.29454 8.30762C11.6566 8.30762 13.0993 10.7375 13.4883 13.3899C13.6178 14.2726 12.879 15 11.9868 15H4.60223C3.71008 15 2.97126 14.2726 3.10073 13.3899Z" fill="#030D40"/>
<path d="M18 7.8002H11V6.2002H18C19.5464 6.2002 20.8 7.4538 20.8 9.0002V17.0002C20.8 18.5466 19.5464 19.8002 18 19.8002H9.00001C7.45361 19.8002 6.20001 18.5466 6.20001 17.0002V15.0002H7.80001V17.0002C7.80001 17.6629 8.33727 18.2002 9.00001 18.2002H18C18.6628 18.2002 19.2 17.6629 19.2 17.0002V9.0002C19.2 8.33745 18.6628 7.8002 18 7.8002Z" fill="#030D40"/>
<circle cx="16" cy="11" r="1" fill="#030D40"/>
<rect x="15.1" y="12.4619" width="1.84615" height="3.54" fill="#030D40"/>
</svg>
