<svg width="24" height="25" viewBox="0 0 24 25" fill="none" xmlns="http://www.w3.org/2000/svg">
<path fill-rule="evenodd" clip-rule="evenodd" d="M9.34966 5.06584C9.40048 4.9642 9.50436 4.9 9.61799 4.9H14.3819C14.4956 4.9 14.5994 4.9642 14.6503 5.06584L15.3739 6.51305C15.5468 6.85883 15.9672 6.99899 16.313 6.8261C16.6588 6.65321 16.7989 6.23274 16.6261 5.88695L15.9025 4.43974C15.6145 3.8638 15.0258 3.5 14.3819 3.5H9.61799C8.97408 3.5 8.38543 3.8638 8.09747 4.43974L7.37386 5.88695C7.20097 6.23274 7.34112 6.65321 7.68691 6.8261C8.03269 6.99899 8.45316 6.85883 8.62606 6.51305L9.34966 5.06584ZM3.8 7.69995C3.35817 7.69995 3 8.05812 3 8.49995C3 8.94178 3.35817 9.29995 3.8 9.29995H5.24378L6.13132 20.838C6.20346 21.7758 6.98546 22.4999 7.92602 22.4999H16.074C17.0145 22.4999 17.7965 21.7758 17.8687 20.838L18.7562 9.29995H20.2C20.6418 9.29995 21 8.94178 21 8.49995C21 8.05812 20.6418 7.69995 20.2 7.69995H3.8ZM7.72661 20.7153L6.84851 9.29995H17.1515L16.2734 20.7153C16.2654 20.8195 16.1785 20.8999 16.074 20.8999H7.92602C7.82151 20.8999 7.73463 20.8195 7.72661 20.7153ZM9.50005 11.2C9.11345 11.2 8.80005 11.5134 8.80005 11.9V18.5C8.80005 18.8866 9.11345 19.2 9.50005 19.2C9.88665 19.2 10.2 18.8865 10.2 18.5V11.9C10.2 11.5134 9.88665 11.2 9.50005 11.2ZM11.3 11.9C11.3 11.5134 11.6134 11.2 12 11.2C12.3866 11.2 12.7 11.5134 12.7 11.9V18.5C12.7 18.8865 12.3866 19.2 12 19.2C11.6134 19.2 11.3 18.8866 11.3 18.5V11.9ZM14.5 11.2C14.1134 11.2 13.8 11.5134 13.8 11.9V18.5C13.8 18.8866 14.1134 19.2 14.5 19.2C14.8866 19.2 15.2 18.8865 15.2 18.5V11.9C15.2 11.5134 14.8866 11.2 14.5 11.2Z" fill="#B9BCC9"/>
</svg>
