<svg width="24" height="24" viewBox="0 0 24 24" fill="none"
  xmlns="http://www.w3.org/2000/svg">
  <g clipPath="url(#clip0_543_19295)">
    <path fillRule="evenodd" clipRule="evenodd" d="M13.435 6.36388C15.3877 8.3165 15.3877 11.4823 13.435 13.4349C11.4824 15.3876 8.31658 15.3876 6.36396 13.4349C4.41134 11.4823 4.41134 8.3165 6.36396 6.36388C8.31658 4.41126 11.4824 4.41126 13.435 6.36388ZM15.5062 14.0919C17.5618 11.3501 17.3428 7.44326 14.8492 4.94967C12.1156 2.216 7.68342 2.216 4.94975 4.94967C2.21608 7.68334 2.21608 12.1155 4.94975 14.8492C7.44334 17.3428 11.3502 17.5617 14.092 15.5061L19.0919 20.506L20.5061 19.0918L15.5062 14.0919Z" fill="#A2A4B0"/>
  </g>
  <defs>
    <clipPath id="clip0_543_19295">
      <rect width="24" height="24" fill="white"/>
    </clipPath>
  </defs>
</svg>
