<svg width="73" height="72" viewBox="0 0 73 72" fill="none"
  xmlns="http://www.w3.org/2000/svg">
  <rect x="0.5" width="72" height="72" rx="36" fill="#F7F7FA"/>
  <path fillRule="evenodd" clipRule="evenodd" d="M39.3701 24.7278C43.2753 28.633 43.2753 34.9647 39.3701 38.8699C35.4648 42.7751 29.1332 42.7751 25.2279 38.8699C21.3227 34.9647 21.3227 28.633 25.2279 24.7278C29.1332 20.8225 35.4648 20.8225 39.3701 24.7278ZM43.5124 40.1839C47.6237 34.7002 47.1857 26.8865 42.1985 21.8993C36.7311 16.432 27.8668 16.432 22.3995 21.8993C16.9322 27.3667 16.9322 36.231 22.3995 41.6983C27.3867 46.6855 35.2004 47.1235 40.684 43.0123L50.6838 53.012L53.5122 50.1836L43.5124 40.1839Z" fill="#A2A4B0"/>
</svg>
