<svg width="24" height="24" viewBox="0 0 24 24" fill="none"
  xmlns="http://www.w3.org/2000/svg">
  <path d="M19.3969 12.5939C19.2527 12.4297 19.1731 12.2186 19.1731 12C19.1731 11.7814 19.2527 11.5703 19.3969 11.4061L20.5488 10.1103C20.6757 9.96868 20.7545 9.79053 20.7739 9.60138C20.7933 9.41223 20.7523 9.2218 20.6568 9.0574L18.857 5.94382C18.7624 5.77961 18.6184 5.64945 18.4455 5.57189C18.2726 5.49433 18.0797 5.47333 17.8941 5.51188L16.2024 5.85384C15.9871 5.89832 15.763 5.86246 15.5723 5.75305C15.3817 5.64363 15.2377 5.46822 15.1675 5.25992L14.6186 3.61314C14.5582 3.43441 14.4432 3.27916 14.2898 3.16936C14.1364 3.05955 13.9524 3.00074 13.7637 3.00122H10.1642C9.96795 2.99098 9.77376 3.04525 9.61127 3.15575C9.44878 3.26624 9.32692 3.42688 9.26431 3.61314L8.76038 5.25992C8.69019 5.46822 8.54618 5.64363 8.35554 5.75305C8.16489 5.86246 7.94079 5.89832 7.72552 5.85384L5.98876 5.51188C5.81288 5.48703 5.63357 5.51478 5.47344 5.59165C5.3133 5.66851 5.1795 5.79105 5.08888 5.94382L3.28912 9.0574C3.19118 9.21996 3.14714 9.40933 3.1633 9.59843C3.17947 9.78753 3.255 9.96667 3.37911 10.1103L4.52195 11.4061C4.66622 11.5703 4.74579 11.7814 4.74579 12C4.74579 12.2186 4.66622 12.4297 4.52195 12.5939L3.37911 13.8897C3.255 14.0333 3.17947 14.2125 3.1633 14.4016C3.14714 14.5907 3.19118 14.78 3.28912 14.9426L5.08888 18.0562C5.18345 18.2204 5.32745 18.3505 5.50035 18.4281C5.67324 18.5057 5.86621 18.5267 6.05175 18.4881L7.74352 18.1462C7.95878 18.1017 8.18289 18.1375 8.37353 18.247C8.56418 18.3564 8.70819 18.5318 8.77838 18.7401L9.3273 20.3869C9.38991 20.5731 9.51177 20.7338 9.67426 20.8443C9.83675 20.9547 10.0309 21.009 10.2272 20.9988H13.8267C14.0153 20.9993 14.1994 20.9404 14.3528 20.8306C14.5062 20.7208 14.6212 20.5656 14.6816 20.3869L15.2305 18.7401C15.3007 18.5318 15.4447 18.3564 15.6353 18.247C15.826 18.1375 16.0501 18.1017 16.2654 18.1462L17.9571 18.4881C18.1427 18.5267 18.3356 18.5057 18.5085 18.4281C18.6814 18.3505 18.8254 18.2204 18.92 18.0562L20.7198 14.9426C20.8153 14.7782 20.8563 14.5878 20.8369 14.3986C20.8175 14.2095 20.7387 14.0313 20.6118 13.8897L19.3969 12.5939ZM18.0561 13.7998L18.776 14.6096L17.6242 16.6074L16.5623 16.3914C15.9142 16.2589 15.24 16.369 14.6677 16.7008C14.0954 17.0325 13.6648 17.5629 13.4577 18.1912L13.1158 19.199H10.8121L10.4881 18.1732C10.281 17.5449 9.85047 17.0146 9.27817 16.6828C8.70587 16.351 8.03168 16.2409 7.38357 16.3734L6.32171 16.5894L5.15187 14.6006L5.87177 13.7908C6.31447 13.2958 6.55922 12.655 6.55922 11.991C6.55922 11.327 6.31447 10.6862 5.87177 10.1912L5.15187 9.38136L6.30371 7.40163L7.36557 7.6176C8.01368 7.75008 8.68787 7.63999 9.26017 7.30822C9.83248 6.97645 10.263 6.4461 10.4701 5.81784L10.8121 4.80098H13.1158L13.4577 5.82684C13.6648 6.4551 14.0954 6.98545 14.6677 7.31722C15.24 7.64898 15.9142 7.75908 16.5623 7.62659L17.6242 7.41062L18.776 9.40835L18.0561 10.2182C17.6184 10.7121 17.3767 11.3491 17.3767 12.009C17.3767 12.6689 17.6184 13.3059 18.0561 13.7998ZM11.9639 8.40049C11.252 8.40049 10.5561 8.6116 9.96416 9.00712C9.37222 9.40264 8.91087 9.9648 8.63843 10.6225C8.36599 11.2803 8.29471 12.004 8.4336 12.7022C8.57248 13.4005 8.9153 14.0418 9.4187 14.5452C9.9221 15.0486 10.5635 15.3915 11.2617 15.5303C11.9599 15.6692 12.6837 15.598 13.3414 15.3255C13.9991 15.0531 14.5613 14.5917 14.9568 13.9998C15.3523 13.4078 15.5635 12.7119 15.5635 12C15.5635 11.0454 15.1842 10.1298 14.5092 9.45476C13.8341 8.77972 12.9186 8.40049 11.9639 8.40049ZM11.9639 13.7998C11.608 13.7998 11.26 13.6942 10.9641 13.4964C10.6681 13.2987 10.4374 13.0176 10.3012 12.6887C10.165 12.3599 10.1293 11.998 10.1988 11.6489C10.2682 11.2998 10.4396 10.9791 10.6913 10.7274C10.943 10.4757 11.2637 10.3043 11.6128 10.2348C11.9619 10.1654 12.3238 10.201 12.6527 10.3372C12.9815 10.4735 13.2626 10.7041 13.4604 11.0001C13.6581 11.2961 13.7637 11.644 13.7637 12C13.7637 12.4773 13.5741 12.9351 13.2366 13.2726C12.899 13.6101 12.4413 13.7998 11.9639 13.7998Z" fill="#030D40"/>
</svg>
