<svg width="24" height="24" viewBox="0 0 24 24" fill="none" xmlns="http://www.w3.org/2000/svg">
<path d="M12.0584 3.70532C12.0614 3.70334 12.0649 3.70215 12.0694 3.70215C12.074 3.70215 12.0775 3.70334 12.0805 3.70532C12.8522 4.20992 14.3035 5.14296 15.5734 5.86839C16.6812 6.50118 18.1616 6.57469 19.0492 6.56296C19.0672 6.56272 19.0844 6.56586 19.0997 6.57142C19.1119 6.5759 19.1211 6.58128 19.1273 6.5858C19.1513 7.36961 19.1481 8.51301 19.0168 9.70964C18.8829 10.9297 18.6229 12.1342 18.1706 13.0618C17.6023 14.2271 16.4679 15.6542 15.2331 17.0028C14.0321 18.3146 12.8018 19.4823 12.0694 20.1547C11.3371 19.4823 10.1068 18.3146 8.90575 17.0028C7.67094 15.6542 6.53651 14.2271 5.96825 13.0618C5.51593 12.1342 5.2559 10.9297 5.12202 9.70964C4.99071 8.51301 4.98759 7.36961 5.01157 6.5858C5.01773 6.58128 5.02692 6.5759 5.03917 6.57142C5.0544 6.56586 5.07161 6.56272 5.08966 6.56296C5.97721 6.57469 7.45769 6.50118 8.56544 5.86839C9.83538 5.14296 11.2866 4.20992 12.0584 3.70532ZM13.175 2.03137C12.5036 1.59241 11.6353 1.59241 10.9639 2.03137C10.1983 2.53196 8.78859 3.43761 7.57341 4.13176C6.97089 4.47595 5.97257 4.57445 5.11609 4.56313C4.09818 4.54969 3.05088 5.30333 3.01318 6.50295C2.98676 7.34342 2.98786 8.59651 3.13395 9.9278C3.27859 11.2459 3.57247 12.7118 4.1706 13.9384C4.87284 15.3784 6.1758 16.9828 7.43062 18.3534C8.7027 19.7428 9.99693 20.9681 10.7479 21.6565C11.4981 22.3442 12.6408 22.3442 13.391 21.6565C14.1419 20.9681 15.4362 19.7428 16.7082 18.3534C17.9631 16.9828 19.266 15.3784 19.9682 13.9384C20.5664 12.7118 20.8603 11.2459 21.0049 9.9278C21.151 8.59652 21.1521 7.34342 21.1257 6.50295C21.088 5.30333 20.0407 4.54969 19.0228 4.56313C18.1663 4.57445 17.168 4.47595 16.5654 4.13176C15.3503 3.43761 13.9406 2.53196 13.175 2.03137ZM11 9.50012C11 8.94784 11.4477 8.50012 12 8.50012C12.5523 8.50012 13 8.94784 13 9.50012V10.0001H11V9.50012ZM14 10.0001C14.5523 10.0001 15 10.4478 15 11.0001V14.0001C15 14.5524 14.5523 15.0001 14 15.0001H10C9.44772 15.0001 9 14.5524 9 14.0001V11.0001C9 10.4478 9.44772 10.0001 10 10.0001V9.50012C10 8.39555 10.8954 7.50012 12 7.50012C13.1046 7.50012 14 8.39555 14 9.50012V10.0001ZM12.3281 12.5247C12.5779 12.403 12.75 12.1467 12.75 11.8501C12.75 11.4359 12.4142 11.1001 12 11.1001C11.5858 11.1001 11.25 11.4359 11.25 11.8501C11.25 12.1467 11.4221 12.403 11.6719 12.5247L11.5 13.9001H12.5L12.3281 12.5247Z" fill="#030D40"/>
</svg>
