<svg width="24" height="25" viewBox="0 0 24 25" fill="none" xmlns="http://www.w3.org/2000/svg">
<path fill-rule="evenodd" clip-rule="evenodd" d="M19.2742 18.3L12.346 6.3C12.192 6.03333 11.8071 6.03333 11.6531 6.3L4.72493 18.3C4.57097 18.5667 4.76342 18.9 5.07134 18.9H18.9277C19.2357 18.9 19.4281 18.5667 19.2742 18.3ZM13.7316 5.5C12.9618 4.16667 11.0373 4.16667 10.2675 5.5L3.33929 17.5C2.56949 18.8333 3.53174 20.5 5.07134 20.5H18.9277C20.4673 20.5 21.4296 18.8333 20.6598 17.5L13.7316 5.5ZM12.1787 8.90002H11.8203C11.223 8.90002 10.7589 9.42017 10.8267 10.0136L11.4427 15.4033C11.475 15.6863 11.7146 15.9 11.9995 15.9C12.2843 15.9 12.5239 15.6863 12.5562 15.4033L13.1722 10.0136C13.2401 9.42017 12.776 8.90002 12.1787 8.90002ZM11.9995 18C12.4965 18 12.8995 17.597 12.8995 17.1C12.8995 16.6029 12.4965 16.2 11.9995 16.2C11.5024 16.2 11.0995 16.6029 11.0995 17.1C11.0995 17.597 11.5024 18 11.9995 18Z" fill="#FFC924"/>
</svg>
