<svg width="49" height="48" viewBox="0 0 49 48" fill="none" xmlns="http://www.w3.org/2000/svg">
<path fill-rule="evenodd" clip-rule="evenodd" d="M14.4984 7.60002C14.2775 7.60002 14.0984 7.77911 14.0984 8.00002V36C14.0984 36.2209 14.2775 36.4 14.4984 36.4H17.4984C18.3821 36.4 19.0984 37.1164 19.0984 38C19.0984 38.8837 18.3821 39.6 17.4984 39.6H14.4984C12.5102 39.6 10.8984 37.9883 10.8984 36V8.00002C10.8984 6.0118 12.5102 4.40002 14.4984 4.40002H27.1651C28.3768 4.40002 29.5558 4.79302 30.5251 5.52002L35.8584 9.52002C37.2685 10.5776 38.0984 12.2374 38.0984 14V36C38.0984 37.9883 36.4867 39.6 34.4984 39.6H31.4984C30.6148 39.6 29.8984 38.8837 29.8984 38C29.8984 37.1164 30.6148 36.4 31.4984 36.4H34.4984C34.7194 36.4 34.8984 36.2209 34.8984 36V14C34.8984 13.2446 34.5428 12.5333 33.9384 12.08L28.6051 8.08002C28.1897 7.76845 27.6844 7.60002 27.1651 7.60002H14.4984Z" fill="#A2A4B0"/>
<path d="M22.8984 22H26.0984V41C26.0984 41.5523 25.6507 42 25.0984 42H23.8984C23.3462 42 22.8984 41.5523 22.8984 41V22Z" fill="#A2A4B0"/>
<path fill-rule="evenodd" clip-rule="evenodd" d="M24.7205 22.0709C24.5861 21.9813 24.4111 21.9813 24.2767 22.0709L19.3861 25.3313C18.6509 25.8215 17.6575 25.6228 17.1673 24.8875C16.6772 24.1523 16.8758 23.1589 17.6111 22.6687L22.5017 19.4083C23.7109 18.6022 25.2863 18.6022 26.4955 19.4083L31.3861 22.6687C32.1214 23.1589 32.3201 24.1523 31.8299 24.8875C31.3397 25.6228 30.3463 25.8215 29.6111 25.3313L24.7205 22.0709Z" fill="#A2A4B0"/>
</svg>
