<svg width="97" height="96" viewBox="0 0 97 96" fill="none"
  xmlns="http://www.w3.org/2000/svg">
  <rect x="1" y="0.5" width="95" height="95" rx="47.5" fill="#A2A4B0"/>
  <path d="M48.3339 45.2307C52.4123 45.2307 55.7185 41.9245 55.7185 37.8461C55.7185 33.7677 52.4123 30.4615 48.3339 30.4615C44.2555 30.4615 40.9493 33.7677 40.9493 37.8461C40.9493 41.9245 44.2555 45.2307 48.3339 45.2307ZM48.3339 51.6923C55.9809 51.6923 62.1801 45.4932 62.1801 37.8461C62.1801 30.1991 55.9809 24 48.3339 24C40.6869 24 34.4878 30.1991 34.4878 37.8461C34.4878 45.4932 40.6869 51.6923 48.3339 51.6923Z" fill="#7F818A"/>
  <path d="M34.1073 65.5385H62.5614C61.8316 61.4151 60.3929 58.0196 58.339 55.6947C56.3117 53.3999 53.3055 51.6922 48.3344 51.6922C43.3633 51.6922 40.357 53.3999 38.3297 55.6947C36.2758 58.0196 34.8371 61.4151 34.1073 65.5385ZM33.5597 65.5383C33.5571 65.5381 33.5558 65.5378 33.5558 65.5377ZM27.5592 65.5597C29.1152 54.9502 34.8863 45.2307 48.3344 45.2307C61.7825 45.2307 67.5535 54.9502 69.1095 65.5597C69.6273 69.0906 66.6721 72 63.1035 72H33.5652C29.9966 72 27.0413 69.0906 27.5592 65.5597Z" fill="#7F818A"/>
  <rect x="1" y="0.5" width="95" height="95" rx="47.5" stroke="#D1D4E3"/>
</svg>
