<svg width="19" height="19" viewBox="0 0 19 19" fill="none" xmlns="http://www.w3.org/2000/svg">
<path d="M13.757 1.0001L11.757 3.0001H2V17.0001H16V7.2431L18 5.2431V18.0001C18 18.2653 17.8946 18.5197 17.7071 18.7072C17.5196 18.8947 17.2652 19.0001 17 19.0001H1C0.734784 19.0001 0.48043 18.8947 0.292893 18.7072C0.105357 18.5197 0 18.2653 0 18.0001V2.0001C0 1.73488 0.105357 1.48053 0.292893 1.29299C0.48043 1.10545 0.734784 1.0001 1 1.0001H13.757ZM17.485 0.100098L18.9 1.5161L9.708 10.7081L8.296 10.7111L8.294 9.2941L17.485 0.100098Z" fill="#2869FF"/>
</svg>
