<svg width="32" height="33" viewBox="0 0 32 33" fill="none"
  xmlns="http://www.w3.org/2000/svg">
  <g clipPath="url(#clip0_543_22693)">
    <path d="M16 32.5C24.8366 32.5 32 25.3366 32 16.5C32 7.66344 24.8366 0.5 16 0.5C7.16344 0.5 0 7.66344 0 16.5C0 25.3366 7.16344 32.5 16 32.5Z" fill="#F3BA2F"/>
    <path d="M12.116 14.904L16 11.02L19.886 14.906L22.146 12.646L16 6.5L9.856 12.644L12.116 14.904ZM6 16.5L8.26 14.24L10.52 16.5L8.26 18.76L6 16.5ZM12.116 18.096L16 21.98L19.886 18.094L22.146 20.353L16 26.5L9.856 20.356L9.853 20.353L12.116 18.096ZM21.48 16.5L23.74 14.24L26 16.5L23.74 18.76L21.48 16.5ZM18.292 16.498H18.294V16.5L16 18.794L13.709 16.504L13.705 16.5L13.709 16.497L14.11 16.095L14.305 15.9L16 14.206L18.293 16.499L18.292 16.498Z" fill="white"/>
  </g>
  <defs>
    <clipPath id="clip0_543_22693">
      <rect width="32" height="32" fill="white" transform="translate(0 0.5)"/>
    </clipPath>
  </defs>
</svg>