<svg width="32" height="33" viewBox="0 0 32 33" fill="none"
  xmlns="http://www.w3.org/2000/svg">
  <g clipPath="url(#clip0_543_22675)">
    <path d="M16 32.5C24.8366 32.5 32 25.3366 32 16.5C32 7.66344 24.8366 0.5 16 0.5C7.16344 0.5 0 7.66344 0 16.5C0 25.3366 7.16344 32.5 16 32.5Z" fill="#627EEA"/>
    <path d="M16 4.5V13.37L23.497 16.72L16 4.5Z" fill="white" fillOpacity="0.602"/>
    <path d="M16.498 4.5L9 16.72L16.498 13.37V4.5Z" fill="white"/>
    <path d="M16 22.852V28.879L23.502 18.5L16 22.852Z" fill="white" fillOpacity="0.602"/>
    <path d="M16.498 28.879V22.851L9 18.5L16.498 28.879Z" fill="white"/>
    <path d="M16 21.201L23.497 16.848L16 13.5V21.201Z" fill="white" fillOpacity="0.2"/>
    <path d="M9 16.848L16.498 21.201V13.5L9 16.848Z" fill="white" fillOpacity="0.602"/>
  </g>
  <defs>
    <clipPath id="clip0_543_22675">
      <rect width="32" height="32" fill="white" transform="translate(0 0.5)"/>
    </clipPath>
  </defs>
</svg>