<svg width="32" height="33" viewBox="0 0 32 33" fill="none"
  xmlns="http://www.w3.org/2000/svg">
  <g clipPath="url(#clip0_543_22706)">
    <path d="M16 32.5C24.8366 32.5 32 25.3366 32 16.5C32 7.66344 24.8366 0.5 16 0.5C7.16344 0.5 0 7.66344 0 16.5C0 25.3366 7.16344 32.5 16 32.5Z" fill="#26A17B"/>
    <path fillRule="evenodd" clipRule="evenodd" d="M17.622 18.064V18.062C17.512 18.07 16.945 18.104 15.68 18.104C14.67 18.104 13.959 18.074 13.709 18.062V18.065C9.821 17.894 6.919 17.217 6.919 16.407C6.919 15.598 9.821 14.921 13.709 14.747V17.391C13.963 17.409 14.691 17.452 15.697 17.452C16.904 17.452 17.509 17.402 17.622 17.392V14.749C21.502 14.922 24.397 15.599 24.397 16.407C24.397 17.217 21.502 17.892 17.622 18.064ZM17.622 14.474V12.108H23.036V8.5H8.295V12.108H13.709V14.473C9.309 14.675 6 15.547 6 16.591C6 17.635 9.309 18.506 13.709 18.709V26.291H17.622V18.707C22.015 18.505 25.316 17.634 25.316 16.591C25.316 15.548 22.015 14.677 17.622 14.474Z" fill="white"/>
  </g>
  <defs>
    <clipPath id="clip0_543_22706">
      <rect width="32" height="32" fill="white" transform="translate(0 0.5)"/>
    </clipPath>
  </defs>
</svg>